<svg xmlns="http://www.w3.org/2000/svg" width="434.215" height="125.994" viewBox="0 0 434.215 125.994">
  <g id="Layer_2" data-name="Layer 2" transform="translate(0)">
    <g id="Layer_1" data-name="Layer 1" transform="translate(0)">
      <path id="Path_299" data-name="Path 299" d="M119.566,112q.491.805.979,1.659l.1-.06c-.338-.608-.685-1.208-1.035-1.76a18.929,18.929,0,0,0,.761-5.034h-.125a18.872,18.872,0,0,1-.725,4.905,38.049,38.049,0,0,0-4.43-5.9,18.9,18.9,0,0,0,.644-4.8,18.062,18.062,0,0,0-.371-3.572A16.367,16.367,0,0,1,118.592,100l.093-.093a16.589,16.589,0,0,0-3.347-2.642,22.6,22.6,0,0,0-3.222-7.74l-.1.068a22.552,22.552,0,0,1,3.194,7.591,18.888,18.888,0,0,0-6.637-2.283,15.936,15.936,0,0,0-2.521-5.509,17.2,17.2,0,0,1,5.852.081l.024-.129a17.543,17.543,0,0,0-5.96-.068,17.953,17.953,0,0,0-4.507-4.366,18.164,18.164,0,0,1,2.747-1.248l-.04-.125a18.2,18.2,0,0,0-2.819,1.289A20.048,20.048,0,0,0,94.859,82c.262-.4.532-.805.805-1.208l-.1-.077c-.3.4-.584.805-.85,1.24a21.123,21.123,0,0,0-4.776-.548H89.8a20.942,20.942,0,0,0-3.121.25c-.177-.4-.358-.805-.556-1.16l-.113.056c.193.362.366.741.536,1.124a20.314,20.314,0,0,0-6.661,2.292,14.623,14.623,0,0,0-2.126-1.136l-.048.117a14.292,14.292,0,0,1,2.046,1.091,18.634,18.634,0,0,0-5.284,4.43,20.66,20.66,0,0,0-4.551-.524v.125a20.438,20.438,0,0,1,4.454.507,16.266,16.266,0,0,0-2.839,5.308,21.691,21.691,0,0,0-6.295,1.732,25.3,25.3,0,0,1,1.611-4.5l-.226.3a21.691,21.691,0,0,0-1.514,4.265c-.721.334-1.446.7-2.175,1.132l.064.113a22.642,22.642,0,0,1,2.07-1.079,22.428,22.428,0,0,0-.681,5.143,18.739,18.739,0,0,0,.4,3.874,26.62,26.62,0,0,0-4.289,4.962,18.042,18.042,0,0,1-.354-3.552h-.125a18.352,18.352,0,0,0,.4,3.7c-.282.4-.56.854-.83,1.3l.109.068q.375-.6.761-1.208a21.2,21.2,0,0,0,3.318,7.608,32.908,32.908,0,0,0-1.675,4.43,16.75,16.75,0,0,1-1.675-4.047l-.125.032a16.814,16.814,0,0,0,1.752,4.18c-.052.177-.109.346-.157.524l.121.036c.036-.137.085-.27.125-.4a26.625,26.625,0,0,0,7.036,7.6c-.109,1.043-.193,2.106-.242,3.178h.129q.064-1.567.238-3.1a36.672,36.672,0,0,0,7.587,4.317c0,1.506.085,3.065.2,4.7h.129c-.117-1.611-.177-3.153-.193-4.631a37.454,37.454,0,0,0,8.385,2.416c.036,1.538.085,3.093.161,4.668H85.7c-.072-1.563-.121-3.1-.157-4.635a32.128,32.128,0,0,0,5.111.4c.967,0,1.925-.048,2.88-.125.024,1.546.04,3.093.056,4.647h.125c0-1.555-.036-3.105-.056-4.656a35.356,35.356,0,0,0,7.938-1.635c-.052,1.45-.145,2.944-.282,4.5h.125c.141-1.567.234-3.085.29-4.555a34.183,34.183,0,0,0,7.608-3.649q.036,1.528,0,3.145h.129q.054-1.667,0-3.242a27.269,27.269,0,0,0,7.249-6.846,10.875,10.875,0,0,1,.032,1.14h.125a11.875,11.875,0,0,0-.04-1.3,20.608,20.608,0,0,0,2.819-5.638l-.125-.04a20.052,20.052,0,0,1-2.718,5.477,18.224,18.224,0,0,0-1.349-5.1A22.126,22.126,0,0,0,119.566,112Zm-.089-.145a21.945,21.945,0,0,1-4.047,7.575,33.7,33.7,0,0,0-3.741-6.6,20.3,20.3,0,0,0,3.383-6.883A38.413,38.413,0,0,1,119.478,111.857Zm-33.507-15.1a3.012,3.012,0,0,0,.193,1.059,48.826,48.826,0,0,0-6.983,3.492,9.484,9.484,0,0,1-.83-3C80.792,97.68,83.341,97.213,85.971,96.754Zm.149-.149h0a3.061,3.061,0,0,1,.221-1h0l.024-.125h0a3.222,3.222,0,0,1,.628-.91h0a3.874,3.874,0,0,1,2.332-1.112h.06a3.313,3.313,0,0,1,.4-.024,4,4,0,0,1,.733.068v.024l.125.024h0a3.733,3.733,0,0,1,2.195,1.337h0l.072.1h0a3.037,3.037,0,0,1,.58,1.768,2.062,2.062,0,0,1,0,.278h-.157v.133h.149a3.149,3.149,0,0,1-.983,1.865l-.068-.06-.085.093.056.052a3.918,3.918,0,0,1-2.6.914,4.324,4.324,0,0,1-.459-.024.861.861,0,0,0,.024-.109l-.121-.028a.2.2,0,0,1-.028.121,3.894,3.894,0,0,1-2.094-.983h0l-.077-.1a.1.1,0,0,0-.04.028,3.35,3.35,0,0,1-.7-1.043h.028l-.044-.117h-.028a2.948,2.948,0,0,1-.189-1.035h.044Zm1.611,3.085c-1.353,2.3-2.582,4.478-3.685,6.589a11.518,11.518,0,0,1-2.775-2.014,52.331,52.331,0,0,1,5.739-5.171,4.027,4.027,0,0,0,2.171,1.023c-.584,2.461-1.1,4.913-1.555,7.378a12.453,12.453,0,0,1-3.472-1.16c1.1-2.106,2.332-4.285,3.681-6.585Zm7.527,6.818a12.593,12.593,0,0,1-3.548,1.059q-.532-3.713-1.269-7.418l-.125.024c.5,2.465.91,4.937,1.265,7.406a13.2,13.2,0,0,1-1.7.113,12.65,12.65,0,0,1-2.122-.177c.443-2.461.967-4.913,1.551-7.374a4.8,4.8,0,0,0,.487.028,4.059,4.059,0,0,0,2.694-.995,69.637,69.637,0,0,1,5.658,5.417,11.68,11.68,0,0,1-2.771,1.861c-1.132-2.227-2.384-4.43-3.749-6.689l-.1.068c1.373,2.243,2.622,4.454,3.749,6.677Zm-7.652,1.116c-.447,2.485-.834,4.97-1.144,7.483a20.39,20.39,0,0,1-5.582-1.756c.914-2.263,1.989-4.539,3.222-6.9a12.759,12.759,0,0,0,3.512,1.172Zm.129.02a13.387,13.387,0,0,0,2.147.177,12.821,12.821,0,0,0,1.724-.113c.354,2.5.64,5,.878,7.511a21.239,21.239,0,0,1-2.493.165h-.137a21.142,21.142,0,0,1-3.262-.258q.471-3.762,1.152-7.483Zm4,.044a12.609,12.609,0,0,0,3.588-1.067,64.8,64.8,0,0,1,3.033,6.971,20.483,20.483,0,0,1-5.743,1.611q-.342-3.761-.87-7.519Zm3.7-1.12a11.876,11.876,0,0,0,2.819-1.885,46.421,46.421,0,0,1,4.708,6.013,19.154,19.154,0,0,1-4.474,2.843,63.7,63.7,0,0,0-3.045-6.971Zm2.892-1.973a10.443,10.443,0,0,0,2.014-2.569,45.133,45.133,0,0,1,5.964,4.833,17.51,17.51,0,0,1-2.968,3.488l-.314.27A45.827,45.827,0,0,0,98.33,104.6Zm-.081-.093A70.333,70.333,0,0,0,92.6,99.086a3.428,3.428,0,0,0,.669-.878,38.939,38.939,0,0,1,7,3.745A10.536,10.536,0,0,1,98.25,104.5Zm-4.925-6.4a3.262,3.262,0,0,0,.282-.954,42.63,42.63,0,0,1,7.833.979,9.384,9.384,0,0,1-1.116,3.721A38.572,38.572,0,0,0,93.325,98.1ZM86.2,97.934a3.339,3.339,0,0,0,.717,1.071,53.5,53.5,0,0,0-5.735,5.171,10.153,10.153,0,0,1-1.953-2.755,48.074,48.074,0,0,1,6.979-3.488Zm-5.1,6.339a45.8,45.8,0,0,0-4.8,5.972A17.177,17.177,0,0,1,72.93,106a45.248,45.248,0,0,1,6.194-4.511,10.5,10.5,0,0,0,1.981,2.787Zm.089.093a11.816,11.816,0,0,0,2.795,2.014c-1.208,2.36-2.3,4.635-3.222,6.9a19.093,19.093,0,0,1-4.37-2.96,44.775,44.775,0,0,1,4.8-5.952Zm-.471,9.045a52.9,52.9,0,0,0-2.3,7.048,26.206,26.206,0,0,1-5.707-3.407,42.734,42.734,0,0,1,3.625-6.617,19.045,19.045,0,0,0,4.386,2.976Zm.113.06a20.438,20.438,0,0,0,5.614,1.764c-.3,2.416-.536,4.833-.709,7.314a28.4,28.4,0,0,1-7.2-2.038,53.966,53.966,0,0,1,2.3-7.04Zm5.743,1.78a21.392,21.392,0,0,0,3.278.262h.137a21.5,21.5,0,0,0,2.5-.165c.23,2.445.4,4.9.548,7.358a29.4,29.4,0,0,1-3,.153,29.737,29.737,0,0,1-4.18-.294c.177-2.465.415-4.9.717-7.314Zm6.041.081a20.579,20.579,0,0,0,5.8-1.607,53.914,53.914,0,0,1,2.058,7.249,28.492,28.492,0,0,1-7.285,1.732q-.226-3.7-.564-7.37Zm5.888-1.671a19.126,19.126,0,0,0,4.5-2.859,38.413,38.413,0,0,1,3.536,6.871,26.431,26.431,0,0,1-5.981,3.222,53.564,53.564,0,0,0-2.046-7.233Zm4.6-2.94c.109-.1.217-.185.326-.286a17.317,17.317,0,0,0,2.976-3.488,43.836,43.836,0,0,1,5.111,5.884,23.733,23.733,0,0,1-4.865,4.76,38.581,38.581,0,0,0-3.536-6.871Zm3.371-3.882a15.654,15.654,0,0,0,2.275-5.948,25.968,25.968,0,0,1,6.206,4.946,20.1,20.1,0,0,1-3.363,6.891A44.192,44.192,0,0,0,106.478,106.838Zm-.093-.089a44.88,44.88,0,0,0-5.968-4.833,9.529,9.529,0,0,0,1.136-3.766,27.067,27.067,0,0,1,7.092,2.686,15.594,15.594,0,0,1-2.247,5.912Zm-4.833-8.727c0-.226.028-.451.028-.677a9.349,9.349,0,0,0-.334-2.476,29.987,29.987,0,0,1,7.168.14,15.3,15.3,0,0,1,.4,3.339,15.525,15.525,0,0,1-.169,2.336,27.108,27.108,0,0,0-7.072-2.666Zm-.1-.677a5.818,5.818,0,0,1-.024.648A43.04,43.04,0,0,0,93.6,97.02v-.286a3.4,3.4,0,0,0-.052-.536,51.821,51.821,0,0,1,7.555-1.317,9.263,9.263,0,0,1,.375,2.465Zm-7.914-1.273a3.222,3.222,0,0,0-.528-1.18A37.107,37.107,0,0,1,99.3,91.35a9.883,9.883,0,0,1,1.788,3.407,51.681,51.681,0,0,0-7.527,1.317Zm-.6-1.281a3.592,3.592,0,0,0-.805-.769,38.083,38.083,0,0,1,4.257-5.235A11.208,11.208,0,0,1,99.2,91.245,36.65,36.65,0,0,0,92.958,94.8Zm-.914-.838a4.1,4.1,0,0,0-1.357-.56A42.512,42.512,0,0,1,92.31,87.23a12.448,12.448,0,0,1,3.963,1.494,38.018,38.018,0,0,0-4.229,5.231Zm-1.482-.584a4.269,4.269,0,0,0-.757-.068h-.4a55.6,55.6,0,0,0-1.015-6.238,12.738,12.738,0,0,1,3.834.117,42.1,42.1,0,0,0-1.635,6.19Zm-1.293-.032a4.1,4.1,0,0,0-1.3.4L87.489,93a49.853,49.853,0,0,0-3.137-4.736,12.445,12.445,0,0,1,3.878-1.14,56.536,56.536,0,0,1,1.039,6.218Zm-1.865-.3.451.741a3.677,3.677,0,0,0-.87.632,59.8,59.8,0,0,0-6.1-3.572A11.389,11.389,0,0,1,84.239,88.3a50.742,50.742,0,0,1,3.165,4.74ZM86.869,94.5a3.367,3.367,0,0,0-.648.954L84.7,95.135c-1.816-.4-3.766-.805-5.815-1.087a10.068,10.068,0,0,1,1.885-3.105,59.265,59.265,0,0,1,6.126,3.56Zm-2.195.757c.511.113,1.007.213,1.5.318a3.157,3.157,0,0,0-.222,1.047c-2.634.447-5.187.926-7.652,1.551,0-.274-.04-.548-.04-.83a9.21,9.21,0,0,1,.564-3.178c2.094.278,4.051.7,5.876,1.091ZM78.15,97.346a6.146,6.146,0,0,0,.04.862A39.379,39.379,0,0,0,71.1,100.7a15.271,15.271,0,0,1-.169-2.11,15.066,15.066,0,0,1,.681-4.563,28.489,28.489,0,0,1,7.1.129,9.492,9.492,0,0,0-.532,3.194Zm.052.991a9.42,9.42,0,0,0,.85,3.033,45.049,45.049,0,0,0-6.2,4.519,15.441,15.441,0,0,1-1.708-5.05,39.308,39.308,0,0,1,7.084-2.5Zm-5.453,7.652a38.087,38.087,0,0,0-5.155,5.489,19.669,19.669,0,0,1-2.7-6.536A26.125,26.125,0,0,1,71,100.914a15.706,15.706,0,0,0,1.772,5.058Zm.064.113a17.37,17.37,0,0,0,3.4,4.265,42.443,42.443,0,0,0-3.625,6.617,22.794,22.794,0,0,1-4.929-5.393,38.26,38.26,0,0,1,5.175-5.517Zm-.27,11a43.067,43.067,0,0,0-2.312,7.032,27.74,27.74,0,0,1-6.295-6.383,33.873,33.873,0,0,1,3.669-6.077,23.032,23.032,0,0,0,4.962,5.413Zm.1.085a26.3,26.3,0,0,0,5.751,3.383,50.3,50.3,0,0,0-1.244,7.446,32.931,32.931,0,0,1-6.822-3.822,43.6,43.6,0,0,1,2.34-7.024Zm5.844,3.463a28.46,28.46,0,0,0,7.225,2.038q-.266,3.757-.334,7.624a34.429,34.429,0,0,1-8.131-2.215,50.31,50.31,0,0,1,1.265-7.463Zm7.35,2.054a29.322,29.322,0,0,0,7.2.141c.145,2.557.246,5.119.322,7.688-1.007.089-2.034.141-3.069.141a33.674,33.674,0,0,1-4.788-.346c.072-2.59.177-5.131.358-7.64Zm7.326.129a28.924,28.924,0,0,0,7.3-1.728,55.662,55.662,0,0,1,1.027,7.736,35.545,35.545,0,0,1-8,1.683q-.079-3.878-.3-7.708Zm7.418-1.78a26.527,26.527,0,0,0,6-3.246,39.023,39.023,0,0,1,2.122,7.6,32.823,32.823,0,0,1-7.06,3.375,55.873,55.873,0,0,0-1.039-7.74Zm6.109-3.318a23.685,23.685,0,0,0,4.917-4.817,32.972,32.972,0,0,1,3.729,6.625,28.126,28.126,0,0,1-6.524,5.767,38.868,38.868,0,0,0-2.1-7.591Zm8.5-20.37a18.163,18.163,0,0,1,.4,3.661,18.763,18.763,0,0,1-.58,4.643,25.6,25.6,0,0,0-6.23-4.933,15.175,15.175,0,0,0-.209-5.719,18.461,18.461,0,0,1,6.641,2.332Zm-6.806-2.477a30.447,30.447,0,0,0-7.169-.133,9.96,9.96,0,0,0-1.788-3.439,26.177,26.177,0,0,1,6.444-1.889,15.856,15.856,0,0,1,2.537,5.445Zm-2.61-5.582a26.79,26.79,0,0,0-6.444,1.9,11.12,11.12,0,0,0-2.867-2.493,22.621,22.621,0,0,1,4.813-3.729,17.962,17.962,0,0,1,4.523,4.3Zm-4.579-4.418a23.3,23.3,0,0,0-4.784,3.741,12.388,12.388,0,0,0-4.027-1.522,25.82,25.82,0,0,1,2.376-5A19.984,19.984,0,0,1,101.194,84.89ZM89.789,81.547h.137a20.97,20.97,0,0,1,4.7.532,26.441,26.441,0,0,0-2.376,5,13.036,13.036,0,0,0-2.364-.213,12.887,12.887,0,0,0-1.538.093,29.979,29.979,0,0,0-1.631-5.167A21.366,21.366,0,0,1,89.789,81.547Zm-3.2.27A30.563,30.563,0,0,1,88.2,86.972a12.638,12.638,0,0,0-3.923,1.168,18.248,18.248,0,0,0-4.305-4.08A20.294,20.294,0,0,1,86.591,81.817Zm-6.722,2.316A18.167,18.167,0,0,1,84.187,88.2a11.542,11.542,0,0,0-3.423,2.59A29,29,0,0,0,74.6,88.518a18.5,18.5,0,0,1,5.268-4.386Zm-5.352,4.494a28.594,28.594,0,0,1,6.158,2.255,10.273,10.273,0,0,0-1.9,3.145,28.734,28.734,0,0,0-7.1-.141,16.166,16.166,0,0,1,2.843-5.26ZM64.5,101.011a22.48,22.48,0,0,1,.7-5.235,21.748,21.748,0,0,1,6.291-1.756,15.223,15.223,0,0,0-.665,4.547,15.63,15.63,0,0,0,.177,2.175,25.976,25.976,0,0,0-6.117,4.027A18.562,18.562,0,0,1,64.5,101.011Zm-3.971,9.013a26.447,26.447,0,0,1,4.281-4.994,19.927,19.927,0,0,0,2.726,6.536,33.91,33.91,0,0,0-3.681,6.061,21.123,21.123,0,0,1-3.327-7.6Zm1.675,12.3a32.621,32.621,0,0,1,1.675-4.43,27.877,27.877,0,0,0,6.311,6.383,46.352,46.352,0,0,0-.979,5.674,26.262,26.262,0,0,1-7.007-7.628Zm7.124,7.712a47.461,47.461,0,0,1,.975-5.695,32.578,32.578,0,0,0,6.846,3.818c-.177,1.973-.254,4.027-.234,6.2a36.593,36.593,0,0,1-7.587-4.321Zm7.7,4.378c0-2.175.056-4.229.234-6.2a34.635,34.635,0,0,0,8.135,2.211q-.056,3.157,0,6.415A37.337,37.337,0,0,1,77.03,134.413Zm13.628,2.871a32.263,32.263,0,0,1-5.119-.4c-.044-2.175-.052-4.313,0-6.444a33.636,33.636,0,0,0,4.788.342c1.035,0,2.062-.04,3.073-.129.064,2.155.113,4.325.145,6.5C92.584,137.232,91.625,137.285,90.659,137.285Zm3-.141q-.052-3.262-.145-6.5a34.719,34.719,0,0,0,8-1.687c.129,2.082.165,4.253.089,6.54A34.876,34.876,0,0,1,93.663,137.144Zm8.055-1.691c.077-2.287.044-4.462-.089-6.536a33.141,33.141,0,0,0,7.084-3.4,45.225,45.225,0,0,1,.608,6.266,33.181,33.181,0,0,1-7.587,3.685ZM116.7,124.828a27.136,27.136,0,0,1-7.249,6.879,45.324,45.324,0,0,0-.616-6.262,28.26,28.26,0,0,0,6.548-5.771,18.055,18.055,0,0,1,1.333,5.155Z" transform="translate(-35.598 -48.08)" fill="#fff"/>
      <path id="Path_300" data-name="Path 300" d="M52.182,93.836C36.5,92.479,24.075,78.77,24.075,62.608c0-6.653,2.626-12.372,5.723-17.72C36.246,33.805,71.283,14.458,107.251,0,98.874,1.679,82.6,6.762,73.772,9.545A250.458,250.458,0,0,0,33.024,26.226c-1.691.95-3.222,1.611-6.806,3.753C8.313,40.676-2.452,55.629.48,67.936c2.243,9.408,12.219,17.4,26.145,21.856a98.156,98.156,0,0,0,23.5,4.16c.713,0,1.208-.052,1.917-.048Z" transform="translate(0)" fill="#fff"/>
      <path id="Path_301" data-name="Path 301" d="M59.683,79.954c15.686,1.357,28.191,14.957,28.191,31.123,0,6.653-2.416,12.372-5.5,17.72-6.436,11.059-41.715,30.43-77.682,44.868,8.377-1.679,24.647-6.758,33.475-9.545a250.646,250.646,0,0,0,40.768-16.681c1.691-.95,3.222-1.611,6.806-3.753,17.885-10.713,28.658-25.65,25.726-37.961-2.247-9.4-12.219-17.39-26.149-21.852a93.015,93.015,0,0,0-23.358-4.051,19.9,19.9,0,0,0-2.267.072Z" transform="translate(-2.801 -47.671)" fill="#fff"/>
      <path id="Path_302" data-name="Path 302" d="M584.91,88.54l.544-1.132h.906a3.279,3.279,0,0,1-.29-1.418,2.189,2.189,0,0,1,2.215-2.441,2.493,2.493,0,0,1,1.961.95l.089.109-.729.866-.121-.117a2.126,2.126,0,0,0-1.208-.677c-.648,0-1.039.487-1.039,1.309,0,.95.338,1.418,1.039,1.418h2.243l-.576,1.132Z" transform="translate(-349.35 -49.902)" fill="#fff"/>
      <path id="Path_303" data-name="Path 303" d="M307.91,179.309V164.63h8.3v1.989h-6.122v4.293H316V172.9h-5.908v4.418H316.4v1.993Z" transform="translate(-183.906 -98.329)" fill="#fff"/>
      <path id="Path_304" data-name="Path 304" d="M336.589,174.072h.048a4.325,4.325,0,0,1,3.339-1.712c2.114,0,3.806,1.462,3.806,4.551v6.959h-2.215v-6.987c0-1.655-.846-2.739-2.191-2.739-.971,0-1.744.455-2.787,1.635v8.091H334.37V172.594h2.219Z" transform="translate(-199.71 -102.946)" fill="#fff"/>
      <path id="Path_305" data-name="Path 305" d="M360.79,172.94H363.2l3.012,6.931,2.94-6.931h2.364l-4.929,11.506h-.745L360.79,172.94Z" transform="translate(-215.489 -103.292)" fill="#fff"/>
      <path id="Path_306" data-name="Path 306" d="M393.581,177.163h-2.219V165.886h2.219Zm-1.1-13.367a1.333,1.333,0,1,1,1.321-1.333A1.333,1.333,0,0,1,392.485,163.8Z" transform="translate(-233.617 -96.238)" fill="#fff"/>
      <path id="Path_307" data-name="Path 307" d="M407.691,172.588v2.582h.052c1.12-1.977,2.187-2.819,3.222-2.819a3.884,3.884,0,0,1,2.662,1.309l-1.172,1.933a3.65,3.65,0,0,0-2.062-1.1c-1.518,0-2.714,1.53-2.714,3.467v5.9H405.46V172.584Z" transform="translate(-242.169 -102.94)" fill="#fff"/>
      <path id="Path_308" data-name="Path 308" d="M428.661,178.116c0,2.384,1.47,3.967,3.625,3.967a3.6,3.6,0,0,0,3.806-3.943,3.661,3.661,0,0,0-3.806-3.77A3.573,3.573,0,0,0,428.661,178.116Zm9.69,0a6.073,6.073,0,1,1-6.041-5.759A5.719,5.719,0,0,1,438.351,178.116Z" transform="translate(-254.682 -102.943)" fill="#fff"/>
      <path id="Path_309" data-name="Path 309" d="M464.325,174.072h.052a4.305,4.305,0,0,1,3.331-1.712c2.118,0,3.81,1.462,3.81,4.551v6.959h-2.191v-6.987c0-1.655-.85-2.739-2.195-2.739-.967,0-1.744.455-2.787,1.635v8.091H462.13V172.594h2.215v1.478Z" transform="translate(-276.017 -102.946)" fill="#fff"/>
      <path id="Path_310" data-name="Path 310" d="M495.1,172.593v1.478a4.73,4.73,0,0,1,3.258-1.712,3.7,3.7,0,0,1,3.335,2.038,5,5,0,0,1,3.737-2.038c2.267,0,3.709,1.76,3.709,4.43v7.084h-2.211v-6.991a2.353,2.353,0,0,0-2.32-2.638,3.989,3.989,0,0,0-2.489,1.438v8.188H499.9v-7.007c0-1.836-.926-2.618-2.014-2.618a3.327,3.327,0,0,0-2.787,1.438v8.188H492.88V172.593Z" transform="translate(-294.383 -102.945)" fill="#fff"/>
      <path id="Path_311" data-name="Path 311" d="M547.323,177.088a2.571,2.571,0,0,0-2.606-2.791c-1.7,0-2.714,1.007-3.021,2.791Zm2.014,5.674a7.249,7.249,0,0,1-4.462,1.337c-3.484,0-5.425-2.9-5.425-6,0-3.419,2.138-5.735,5.235-5.735,2.964,0,4.857,2.038,4.857,6.206h-7.885c.354,2.239,1.611,3.391,3.757,3.391a7.126,7.126,0,0,0,3.919-1.353v2.159Z" transform="translate(-322.198 -102.946)" fill="#fff"/>
      <path id="Path_312" data-name="Path 312" d="M572.5,174.072h.052a4.313,4.313,0,0,1,3.339-1.712c2.114,0,3.8,1.462,3.8,4.551v6.959h-2.215v-6.987c0-1.655-.846-2.739-2.187-2.739-.975,0-1.744.455-2.791,1.635v8.091H570.29V172.594H572.5Z" transform="translate(-340.618 -102.946)" fill="#fff"/>
      <path id="Path_313" data-name="Path 313" d="M601.638,169.47h3.532v2.014h-3.532v5.779a1.551,1.551,0,0,0,1.611,1.708,4.8,4.8,0,0,0,2.521-.834v2.09a6.642,6.642,0,0,1-2.694.757,3.312,3.312,0,0,1-3.625-3.548v-5.96H597.51v-.25l4.16-4.1v2.34Z" transform="translate(-356.875 -99.822)" fill="#fff"/>
      <path id="Path_314" data-name="Path 314" d="M644.236,172.9l-2.243-5.082-2.082,5.082Zm2.859,6.287-1.973-4.325-6.093.028-1.772,4.265-2.247.036,6.234-14.732,1.51-.036,6.54,14.768Z" transform="translate(-379.273 -98.203)" fill="#fff"/>
      <path id="Path_315" data-name="Path 315" d="M675.455,174.863a2.147,2.147,0,0,0-2.215,2.038,2.191,2.191,0,0,0,4.382-.052A2.106,2.106,0,0,0,675.455,174.863Zm-.572,9.9c-1.494,0-2.537.709-2.537,1.712,0,1.132,1.1,1.736,3.109,1.736,1.945,0,3.093-.6,3.093-1.631C678.548,185.141,676.257,184.758,674.884,184.758Zm5.852-10.092h-2.287a3.15,3.15,0,0,1,1.168,2.461,4.087,4.087,0,0,1-1.043,2.541c-1.494,1.611-4.535.805-4.535,2.13,0,.628,1.164,1,3.415,1.454,2.388.483,3.222,1.712,3.222,3.145,0,2.235-1.965,3.592-5.28,3.592-3.008,0-5.155-1.434-5.155-3.415,0-1.659.87-2.642,2.819-3.117-.769-.483-1.116-.93-1.116-1.434,0-.729.7-1.357,1.768-1.611v-.048a4.29,4.29,0,0,1-1.865-1.434,3.625,3.625,0,0,1-.6-2.114c0-2.416,1.873-3.886,4.881-3.886h4.611v1.732Z" transform="translate(-400.315 -103.286)" fill="#fff"/>
      <path id="Path_316" data-name="Path 316" d="M707.114,177.088c-.081-1.712-1.047-2.791-2.622-2.791-1.687,0-2.71,1.007-3.008,2.791Zm1.989,5.674a7.249,7.249,0,0,1-4.458,1.337c-3.488,0-5.425-2.9-5.425-6,0-3.419,2.138-5.735,5.235-5.735,2.964,0,4.861,2.038,4.861,6.206h-7.881c.346,2.239,1.611,3.391,3.757,3.391A7.08,7.08,0,0,0,709.1,180.6Z" transform="translate(-417.624 -102.946)" fill="#fff"/>
      <path id="Path_317" data-name="Path 317" d="M732.245,174.072h.056a4.3,4.3,0,0,1,3.335-1.712c2.114,0,3.81,1.462,3.81,4.551v6.959h-2.215v-6.987c0-1.655-.85-2.739-2.187-2.739-.975,0-1.752.455-2.819,1.635v8.091H730.01V172.594h2.215v1.478Z" transform="translate(-436.014 -102.946)" fill="#fff"/>
      <path id="Path_318" data-name="Path 318" d="M768.513,175.553a5.147,5.147,0,0,0-3.089-1.108c-2.014,0-3.407,1.534-3.407,3.822a3.521,3.521,0,0,0,3.778,3.741,7.064,7.064,0,0,0,2.968-.757v2.215a9.1,9.1,0,0,1-3.339.656,5.427,5.427,0,0,1-5.674-5.638c0-3.721,2.143-6.085,5.525-6.085a7.161,7.161,0,0,1,3.222.785v2.384Z" transform="translate(-453.776 -102.969)" fill="#fff"/>
      <path id="Path_319" data-name="Path 319" d="M787.28,190h-2.457l3.806-8.192L784.3,172.94h2.513l3.012,6.347,2.892-6.347H795.2L787.28,190Z" transform="translate(-468.439 -103.292)" fill="#fff"/>
      <path id="Path_320" data-name="Path 320" d="M855.223,177.52h3.761l-1.953-4.43Zm7.865,5.179h-1.772l-1.611-3.6h-5.159l-1.53,3.6H851.24l5.207-12.3h1.208l5.417,12.3Z" transform="translate(-508.421 -101.775)" fill="#fff"/>
      <path id="Path_321" data-name="Path 321" d="M885.708,181.208h2.183c2.042,0,2.594-1.023,2.594-1.933,0-1.112-.854-1.9-2.682-1.9h-2.094Zm0-5.413h1.156c1.716,0,2.561-.644,2.561-1.953,0-.914-.52-1.7-2.118-1.7H885.7V175.8Zm-1.748-5.235h3.524c2.61,0,3.733,1.583,3.733,3.121a2.61,2.61,0,0,1-1.853,2.618v.032a3.222,3.222,0,0,1,2.916,3.194c0,1.506-1.124,3.262-4.16,3.262h-4.144V170.568Z" transform="translate(-527.963 -101.87)" fill="#fff"/>
      <path id="Path_322" data-name="Path 322" d="M918.607,178c0,2.992-1.772,4.966-5.376,4.966-2.561,0-5.05-1.454-5.05-4.784v-7.6h1.74V177.8c0,1.377.181,1.953.733,2.513a3.528,3.528,0,0,0,2.61,1.035,3.924,3.924,0,0,0,2.839-.983,3.581,3.581,0,0,0,.769-2.67v-7.12h1.736Z" transform="translate(-542.429 -101.882)" fill="#fff"/>
      <path id="Path_323" data-name="Path 323" d="M954.084,181.208h2.771a4.457,4.457,0,0,0,4.833-4.535c0-2.453-1.546-4.531-4.933-4.531h-2.686v9.065ZM952.34,170.56h4.7c4.478,0,6.444,3.222,6.444,6.113a6.141,6.141,0,0,1-6.444,6.113h-4.7V170.568Z" transform="translate(-568.805 -101.87)" fill="#fff"/>
      <path id="Path_324" data-name="Path 324" d="M995.65,182.807h-1.744v-5.324H987.12v5.324h-1.74V170.58h1.74v5.328h6.786V170.58h1.744v12.227Z" transform="translate(-588.539 -101.882)" fill="#fff"/>
      <path id="Path_325" data-name="Path 325" d="M1018.215,177.52h3.769l-1.961-4.43Zm7.865,5.179H1024.3l-1.611-3.6h-5.147l-1.526,3.6h-1.78l5.2-12.3h1.236l5.409,12.3Z" transform="translate(-605.776 -101.775)" fill="#fff"/>
      <path id="Path_326" data-name="Path 326" d="M1048.7,181.208h2.179c2.054,0,2.6-1.023,2.6-1.933,0-1.112-.85-1.9-2.682-1.9h-2.1Zm0-5.413h1.152c1.724,0,2.561-.644,2.561-1.953,0-.914-.515-1.7-2.114-1.7h-1.611V175.8Zm-1.74-5.235h3.516c2.61,0,3.733,1.583,3.733,3.121a2.611,2.611,0,0,1-1.849,2.618v.032a3.215,3.215,0,0,1,2.912,3.194c0,1.506-1.116,3.262-4.16,3.262h-4.136V170.568Z" transform="translate(-625.319 -101.87)" fill="#fff"/>
      <path id="Path_327" data-name="Path 327" d="M1073.564,182.807h-1.744V170.58h1.744v12.227Z" transform="translate(-640.167 -101.882)" fill="#fff"/>
      <path id="Path_328" data-name="Path 328" d="M384.734,115.595c2.606,0,3.874-1.579,3.874-4.833s-1.269-4.833-3.761-4.833-7.507,4.12-9.315,9.633Zm-22.553,1.518a8.928,8.928,0,0,1-4.587-1.252,4.185,4.185,0,0,1-3.165,1.248h-26.58c-1.865,0-3.677-.4-4.289-3.085l-.866-4c-.693-3.061-1.3-3.814-3.073-3.814h-.805l2.449,10.181-.234.056a31.766,31.766,0,0,1-6.42.628c-4.027,0-6-1.985-6-6.077v-5.977h1.647v5.755c0,3.355,1.337,4.784,4.466,4.784a25.739,25.739,0,0,0,4.619-.4c-1.824-7.547-2.014-8.139-2.122-8.425a5.942,5.942,0,0,1-.153-.588l-.35-1.389h2.163c2.984,0,4.478,1.208,5.163,4.213l1.059,4.672a2.314,2.314,0,0,0,2.682,1.957h26.367c2.13,0,3.041-1.208,3.041-4.027v-6.548H358.8v7a6.915,6.915,0,0,1-.439,2.509,6.959,6.959,0,0,0,3.669,1.067h12.082V100.11H375.7v11.152c3.351-5.594,7.7-6.846,9.15-6.846,3.443,0,5.493,2.376,5.493,6.363a6.7,6.7,0,0,1-1.611,4.909,4.781,4.781,0,0,1-.91.713,5.2,5.2,0,0,1-2.735.713Z" transform="translate(-184.324 -59.793)" fill="#fff"/>
      <path id="Path_329" data-name="Path 329" d="M523.875,115.447c-1.667,0-3.347,1.156-3.347,3.745,0,2.34,1.168,3.689,3.222,3.689h2.078V115.81l-.221-.068a5.1,5.1,0,0,0-1.732-.286Zm-2.912,14.663-.689-1.486h1.039c2.944,0,4.325-1.309,4.494-4.249h-2.175c-2.255,0-4.664-1.357-4.664-5.183s2.513-5.207,4.861-5.207a11.277,11.277,0,0,1,3.419.5l.181.052v8.32h12.235c2.175,0,3.065-1.168,3.065-4.027v-6.52h1.611v7c0,3.318-1.486,5.034-4.43,5.091H527.439c-.137,3.846-2.09,5.711-5.973,5.711Z" transform="translate(-309.966 -67.079)" fill="#fff"/>
      <path id="Path_330" data-name="Path 330" d="M590.7,117.113v-17h1.619v17Z" transform="translate(-352.808 -59.793)" fill="#fff"/>
      <path id="Path_331" data-name="Path 331" d="M928.08,98.237l.479-.958h1l-.073-.133a3.122,3.122,0,0,1-.282-1.389,2.1,2.1,0,0,1,2.143-2.336,2.436,2.436,0,0,1,1.937.987l-.64.733a2.187,2.187,0,0,0-1.313-.761c-.685,0-1.112.528-1.112,1.377,0,1.023.362,1.522,1.112,1.522h2.122l-.507.958Z" transform="translate(-554.315 -55.797)" fill="#fff"/>
      <path id="Path_332" data-name="Path 332" d="M725.68,98.237l.475-.958h1l-.072-.133a3.178,3.178,0,0,1-.282-1.389,2.1,2.1,0,0,1,2.143-2.336,2.437,2.437,0,0,1,1.953.987l-.656.733a2.187,2.187,0,0,0-1.313-.761c-.689,0-1.116.528-1.116,1.377,0,1.023.366,1.522,1.116,1.522h2.122l-.507.958Z" transform="translate(-433.428 -55.797)" fill="#fff"/>
      <path id="Path_333" data-name="Path 333" d="M326.03,151.08v-2.63h1.3v2.63Z" transform="translate(-194.728 -88.665)" fill="#fff"/>
      <path id="Path_334" data-name="Path 334" d="M569.55,151V148.45h1.3V151Z" transform="translate(-340.176 -88.665)" fill="#fff"/>
      <path id="Path_335" data-name="Path 335" d="M420.75,151V148.45h1.3V151Z" transform="translate(-251.302 -88.665)" fill="#fff"/>
      <path id="Path_336" data-name="Path 336" d="M320.59,151.08v-2.63h1.3v2.63Z" transform="translate(-191.479 -88.665)" fill="#fff"/>
      <path id="Path_337" data-name="Path 337" d="M500.08,102.634V100h1.3v2.634Z" transform="translate(-298.683 -59.727)" fill="#fff"/>
      <path id="Path_338" data-name="Path 338" d="M657.57,102.892V100.23h1.3v2.662Z" transform="translate(-392.747 -59.864)" fill="#fff"/>
      <path id="Path_339" data-name="Path 339" d="M663.6,102.892V100.23h1.3v2.662Z" transform="translate(-396.349 -59.864)" fill="#fff"/>
      <path id="Path_340" data-name="Path 340" d="M888.18,102.892V100.23h1.3v2.662Z" transform="translate(-530.484 -59.864)" fill="#fff"/>
      <path id="Path_341" data-name="Path 341" d="M894.21,102.892V100.23H895.5v2.662Z" transform="translate(-534.086 -59.864)" fill="#fff"/>
      <path id="Path_342" data-name="Path 342" d="M650.9,106.72c-1.728,0-2.255.781-2.255,3.351,0,2.908.83,3.125,2.09,3.125a8.361,8.361,0,0,0,2.118-.294v-6A7.249,7.249,0,0,0,650.9,106.72Zm59.1,10.5a9.174,9.174,0,0,1-4.543-1.188,4.349,4.349,0,0,1-3.1,1.18h-4.37a9.178,9.178,0,0,1-4.547-1.188,4.378,4.378,0,0,1-3.113,1.18h-4.366a9.226,9.226,0,0,1-4.551-1.188,4.332,4.332,0,0,1-3.1,1.18H652.853v-2.13a8.678,8.678,0,0,1-2.147.29c-3,0-4.237-1.534-4.237-5.292s1.41-5.517,4.43-5.517a12.633,12.633,0,0,1,3.818.572l.23.06v10.008h23c1.981,0,2.787-1.087,2.787-3.774V105.2h2.094v6.673a7.16,7.16,0,0,1-.379,2.416,6.629,6.629,0,0,0,3.363.922h4.152c1.985,0,2.791-1.087,2.791-3.774V105.2h2.094v6.673a7.161,7.161,0,0,1-.379,2.416,6.642,6.642,0,0,0,3.363.922H702c1.977,0,2.787-1.087,2.787-3.774V105.2h2.086v6.673a7.282,7.282,0,0,1-.371,2.416,6.649,6.649,0,0,0,3.363.922h8.908c2.014,0,2.819-1.059,2.819-3.774V100.28h2.122v11.591c0,3.4-1.486,5.191-4.43,5.336h-.229Z" transform="translate(-386.118 -59.894)" fill="#fff"/>
      <path id="Path_343" data-name="Path 343" d="M845.74,117.223V100.28h2.114v16.943Z" transform="translate(-505.136 -59.894)" fill="#fff"/>
      <path id="Path_344" data-name="Path 344" d="M880.682,112.477c-1.953,0-2.9,1.1-2.9,3.351,0,2.747,1.317,3.125,2.734,3.125a8.42,8.42,0,0,0,2.126-.294v-6A7.33,7.33,0,0,0,880.682,112.477Zm69.3,8.457V119.92c0-1.816-.471-2.586-1.567-2.586-1.373,0-1.643.946-1.643,2.586v1.015ZM921.2,122.948a9.17,9.17,0,0,1-4.539-1.188,4.382,4.382,0,0,1-3.113,1.18H904.4a9.2,9.2,0,0,1-4.547-1.188,4.374,4.374,0,0,1-3.109,1.18h-14.1v-2.106a8.76,8.76,0,0,1-2.151.29c-3.242,0-4.881-1.784-4.881-5.292s1.853-5.517,5.074-5.517a12.613,12.613,0,0,1,3.818.572l.226.06v10.008h11.647c2.014,0,2.819-1.087,2.819-3.774v-6.218H901.3v6.673a7.178,7.178,0,0,1-.379,2.416,6.649,6.649,0,0,0,3.359.922h8.912c2.014,0,2.819-1.087,2.819-3.774v-6.238h2.05v6.673a7.373,7.373,0,0,1-.37,2.416,6.625,6.625,0,0,0,3.359.922h23.668v-1.015c0-4.027,2.312-4.643,3.685-4.643s3.657.6,3.657,4.643v1.015h3.012v-3.222c0-3.343-2.151-5.771-5.111-5.771a7.6,7.6,0,0,0-3.407.648l-.342.153-.487-1.973.25-.1A10.9,10.9,0,0,1,950,109.92c3.584,0,7.2,2.36,7.2,7.628v5.437Z" transform="translate(-522.982 -65.652)" fill="#fff"/>
      <path id="Path_345" data-name="Path 345" d="M967.11,151.5V148.83H968.4V151.5Z" transform="translate(-577.627 -88.892)" fill="#fff"/>
      <path id="Path_346" data-name="Path 346" d="M973.14,151.5V148.83h1.3V151.5Z" transform="translate(-581.228 -88.892)" fill="#fff"/>
      <path id="Path_347" data-name="Path 347" d="M750.14,151.5V148.83h1.3V151.5Z" transform="translate(-448.037 -88.892)" fill="#fff"/>
      <path id="Path_348" data-name="Path 348" d="M756.17,151.5V148.83h1.3V151.5Z" transform="translate(-451.638 -88.892)" fill="#fff"/>
      <path id="Path_349" data-name="Path 349" d="M783.53,151.5V148.83h1.3V151.5Z" transform="translate(-467.98 -88.892)" fill="#fff"/>
      <path id="Path_350" data-name="Path 350" d="M830.489,185.231H823.92V183.62h6.569Z" transform="translate(-492.103 -109.671)" fill="#fff"/>
      <path id="Path_351" data-name="Path 351" d="M619.913,126.381H613.34V124.77h6.573Z" transform="translate(-366.33 -74.521)" fill="#fff"/>
    </g>
  </g>
</svg>
